<?xml version="1.0" encoding="UTF-8" standalone="no"?><svg xmlns="http://www.w3.org/2000/svg" xmlns:xlink="http://www.w3.org/1999/xlink" contentStyleType="text/css" height="343px" preserveAspectRatio="none" style="width:617px;height:343px;background:#FFFFFF;" version="1.1" viewBox="0 0 617 343" width="617px" zoomAndPan="magnify"><defs/><g><!--MD5=[ed6624c6556d5e7b1bd23032162d20b7]
class Client--><g id="elem_Client"><rect codeLine="1" fill="#F1F1F1" height="48" id="Client" rx="2.5" ry="2.5" style="stroke:#181818;stroke-width:0.5;" width="71" x="220" y="15"/><ellipse cx="235" cy="31" fill="#ADD1B2" rx="11" ry="11" style="stroke:#181818;stroke-width:1.0;"/><path d="M237.9688,36.6406 Q237.3906,36.9375 236.75,37.0781 Q236.1094,37.2344 235.4063,37.2344 Q232.9063,37.2344 231.5781,35.5938 Q230.2656,33.9375 230.2656,30.8125 Q230.2656,27.6875 231.5781,26.0313 Q232.9063,24.375 235.4063,24.375 Q236.1094,24.375 236.75,24.5313 Q237.4063,24.6875 237.9688,24.9844 L237.9688,27.7031 Q237.3438,27.125 236.75,26.8594 Q236.1563,26.5781 235.5313,26.5781 Q234.1875,26.5781 233.5,27.6563 Q232.8125,28.7188 232.8125,30.8125 Q232.8125,32.9063 233.5,33.9844 Q234.1875,35.0469 235.5313,35.0469 Q236.1563,35.0469 236.75,34.7813 Q237.3438,34.5 237.9688,33.9219 L237.9688,36.6406 Z " fill="#000000"/><text fill="#000000" font-family="sans-serif" font-size="14" lengthAdjust="spacing" textLength="39" x="249" y="35.8467">Client</text><line style="stroke:#181818;stroke-width:0.5;" x1="221" x2="290" y1="47" y2="47"/><line style="stroke:#181818;stroke-width:0.5;" x1="221" x2="290" y1="55" y2="55"/></g><!--MD5=[57fc2a06bf08830a141c83d767cd9477]
class FileOut--><g id="elem_FileOut"><rect codeLine="5" fill="#F1F1F1" height="64.2969" id="FileOut" rx="2.5" ry="2.5" style="stroke:#181818;stroke-width:0.5;" width="175" x="326" y="7"/><ellipse cx="385.25" cy="23" fill="#B4A7E5" rx="11" ry="11" style="stroke:#181818;stroke-width:1.0;"/><path d="M381.1719,18.7656 L381.1719,16.6094 L388.5625,16.6094 L388.5625,18.7656 L386.0938,18.7656 L386.0938,26.8438 L388.5625,26.8438 L388.5625,29 L381.1719,29 L381.1719,26.8438 L383.6406,26.8438 L383.6406,18.7656 L381.1719,18.7656 Z " fill="#000000"/><text fill="#000000" font-family="sans-serif" font-size="14" font-style="italic" lengthAdjust="spacing" textLength="48" x="405.75" y="27.8467">FileOut</text><line style="stroke:#181818;stroke-width:0.5;" x1="327" x2="500" y1="39" y2="39"/><line style="stroke:#181818;stroke-width:0.5;" x1="327" x2="500" y1="47" y2="47"/><ellipse cx="337" cy="60.6484" fill="#84BE84" rx="3" ry="3" style="stroke:#038048;stroke-width:1.0;"/><text fill="#000000" font-family="sans-serif" font-size="14" lengthAdjust="spacing" textLength="149" x="346" y="63.9951">void write(byte[] data)</text></g><!--MD5=[321dae1e4c20a532a67879525d68ecc8]
class Decorator--><g id="elem_Decorator"><rect codeLine="9" fill="#F1F1F1" height="80.5938" id="Decorator" rx="2.5" ry="2.5" style="stroke:#181818;stroke-width:0.5;" width="191" x="209" y="131"/><ellipse cx="265.75" cy="147" fill="#A9DCDF" rx="11" ry="11" style="stroke:#181818;stroke-width:1.0;"/><path d="M265.8594,142.3438 L264.7031,147.4219 L267.0313,147.4219 L265.8594,142.3438 Z M264.375,140.1094 L267.3594,140.1094 L270.7188,152.5 L268.2656,152.5 L267.5,149.4375 L264.2188,149.4375 L263.4688,152.5 L261.0313,152.5 L264.375,140.1094 Z " fill="#000000"/><text fill="#000000" font-family="sans-serif" font-size="14" font-style="italic" lengthAdjust="spacing" textLength="69" x="286.25" y="151.8467">Decorator</text><line style="stroke:#181818;stroke-width:0.5;" x1="210" x2="399" y1="163" y2="163"/><rect fill="none" height="6" style="stroke:#C82930;stroke-width:1.0;" width="6" x="217" y="173.6484"/><text fill="#000000" font-family="sans-serif" font-size="14" lengthAdjust="spacing" textLength="111" x="229" y="179.9951">Fileout delegate</text><line style="stroke:#181818;stroke-width:0.5;" x1="210" x2="399" y1="187.2969" y2="187.2969"/><polygon fill="#FFFF44" points="220,195.9453,224,199.9453,220,203.9453,216,199.9453" style="stroke:#B38D22;stroke-width:1.0;"/><text fill="#000000" font-family="sans-serif" font-size="14" lengthAdjust="spacing" textLength="165" x="229" y="204.292">doDelegate(byte[] data)</text></g><!--MD5=[d9864fbc435b1cc0cb88613a5bfc7d26]
class FileOutImpl--><g id="elem_FileOutImpl"><rect codeLine="14" fill="#F1F1F1" height="64.2969" id="FileOutImpl" rx="2.5" ry="2.5" style="stroke:#181818;stroke-width:0.5;" width="175" x="435" y="139.5"/><ellipse cx="480.25" cy="155.5" fill="#ADD1B2" rx="11" ry="11" style="stroke:#181818;stroke-width:1.0;"/><path d="M483.2188,161.1406 Q482.6406,161.4375 482,161.5781 Q481.3594,161.7344 480.6563,161.7344 Q478.1563,161.7344 476.8281,160.0938 Q475.5156,158.4375 475.5156,155.3125 Q475.5156,152.1875 476.8281,150.5313 Q478.1563,148.875 480.6563,148.875 Q481.3594,148.875 482,149.0313 Q482.6563,149.1875 483.2188,149.4844 L483.2188,152.2031 Q482.5938,151.625 482,151.3594 Q481.4063,151.0781 480.7813,151.0781 Q479.4375,151.0781 478.75,152.1563 Q478.0625,153.2188 478.0625,155.3125 Q478.0625,157.4063 478.75,158.4844 Q479.4375,159.5469 480.7813,159.5469 Q481.4063,159.5469 482,159.2813 Q482.5938,159 483.2188,158.4219 L483.2188,161.1406 Z " fill="#000000"/><text fill="#000000" font-family="sans-serif" font-size="14" lengthAdjust="spacing" textLength="76" x="500.75" y="160.3467">FileOutImpl</text><line style="stroke:#181818;stroke-width:0.5;" x1="436" x2="609" y1="171.5" y2="171.5"/><line style="stroke:#181818;stroke-width:0.5;" x1="436" x2="609" y1="179.5" y2="179.5"/><ellipse cx="446" cy="193.1484" fill="#84BE84" rx="3" ry="3" style="stroke:#038048;stroke-width:1.0;"/><text fill="#000000" font-family="sans-serif" font-size="14" lengthAdjust="spacing" textLength="149" x="455" y="196.4951">void write(byte[] data)</text></g><!--MD5=[ce5dc85456b5574660077884e5c719c7]
class BufferedOut--><g id="elem_BufferedOut"><rect codeLine="18" fill="#F1F1F1" height="64.2969" id="BufferedOut" rx="2.5" ry="2.5" style="stroke:#181818;stroke-width:0.5;" width="175" x="7" y="272"/><ellipse cx="48.55" cy="288" fill="#ADD1B2" rx="11" ry="11" style="stroke:#181818;stroke-width:1.0;"/><path d="M51.5188,293.6406 Q50.9406,293.9375 50.3,294.0781 Q49.6594,294.2344 48.9563,294.2344 Q46.4563,294.2344 45.1281,292.5938 Q43.8156,290.9375 43.8156,287.8125 Q43.8156,284.6875 45.1281,283.0313 Q46.4563,281.375 48.9563,281.375 Q49.6594,281.375 50.3,281.5313 Q50.9563,281.6875 51.5188,281.9844 L51.5188,284.7031 Q50.8938,284.125 50.3,283.8594 Q49.7063,283.5781 49.0813,283.5781 Q47.7375,283.5781 47.05,284.6563 Q46.3625,285.7188 46.3625,287.8125 Q46.3625,289.9063 47.05,290.9844 Q47.7375,292.0469 49.0813,292.0469 Q49.7063,292.0469 50.3,291.7813 Q50.8938,291.5 51.5188,290.9219 L51.5188,293.6406 Z " fill="#000000"/><text fill="#000000" font-family="sans-serif" font-size="14" lengthAdjust="spacing" textLength="84" x="68.45" y="292.8467">BufferedOut</text><line style="stroke:#181818;stroke-width:0.5;" x1="8" x2="181" y1="304" y2="304"/><line style="stroke:#181818;stroke-width:0.5;" x1="8" x2="181" y1="312" y2="312"/><ellipse cx="18" cy="325.6484" fill="#84BE84" rx="3" ry="3" style="stroke:#038048;stroke-width:1.0;"/><text fill="#000000" font-family="sans-serif" font-size="14" lengthAdjust="spacing" textLength="149" x="27" y="328.9951">void write(byte[] data)</text></g><!--MD5=[e4375d4025fa445e2d65ae33118cf697]
class EncryptionOut--><g id="elem_EncryptionOut"><rect codeLine="22" fill="#F1F1F1" height="64.2969" id="EncryptionOut" rx="2.5" ry="2.5" style="stroke:#181818;stroke-width:0.5;" width="175" x="217" y="272"/><ellipse cx="252.25" cy="288" fill="#ADD1B2" rx="11" ry="11" style="stroke:#181818;stroke-width:1.0;"/><path d="M255.2188,293.6406 Q254.6406,293.9375 254,294.0781 Q253.3594,294.2344 252.6563,294.2344 Q250.1563,294.2344 248.8281,292.5938 Q247.5156,290.9375 247.5156,287.8125 Q247.5156,284.6875 248.8281,283.0313 Q250.1563,281.375 252.6563,281.375 Q253.3594,281.375 254,281.5313 Q254.6563,281.6875 255.2188,281.9844 L255.2188,284.7031 Q254.5938,284.125 254,283.8594 Q253.4063,283.5781 252.7813,283.5781 Q251.4375,283.5781 250.75,284.6563 Q250.0625,285.7188 250.0625,287.8125 Q250.0625,289.9063 250.75,290.9844 Q251.4375,292.0469 252.7813,292.0469 Q253.4063,292.0469 254,291.7813 Q254.5938,291.5 255.2188,290.9219 L255.2188,293.6406 Z " fill="#000000"/><text fill="#000000" font-family="sans-serif" font-size="14" lengthAdjust="spacing" textLength="98" x="270.75" y="292.8467">EncryptionOut</text><line style="stroke:#181818;stroke-width:0.5;" x1="218" x2="391" y1="304" y2="304"/><line style="stroke:#181818;stroke-width:0.5;" x1="218" x2="391" y1="312" y2="312"/><ellipse cx="228" cy="325.6484" fill="#84BE84" rx="3" ry="3" style="stroke:#038048;stroke-width:1.0;"/><text fill="#000000" font-family="sans-serif" font-size="14" lengthAdjust="spacing" textLength="149" x="237" y="328.9951">void write(byte[] data)</text></g><!--MD5=[9ee3fa60e902d7c2f05886a0381093ab]
class ZipOut--><g id="elem_ZipOut"><rect codeLine="26" fill="#F1F1F1" height="64.2969" id="ZipOut" rx="2.5" ry="2.5" style="stroke:#181818;stroke-width:0.5;" width="175" x="427" y="272"/><ellipse cx="486.75" cy="288" fill="#ADD1B2" rx="11" ry="11" style="stroke:#181818;stroke-width:1.0;"/><path d="M489.7188,293.6406 Q489.1406,293.9375 488.5,294.0781 Q487.8594,294.2344 487.1563,294.2344 Q484.6563,294.2344 483.3281,292.5938 Q482.0156,290.9375 482.0156,287.8125 Q482.0156,284.6875 483.3281,283.0313 Q484.6563,281.375 487.1563,281.375 Q487.8594,281.375 488.5,281.5313 Q489.1563,281.6875 489.7188,281.9844 L489.7188,284.7031 Q489.0938,284.125 488.5,283.8594 Q487.9063,283.5781 487.2813,283.5781 Q485.9375,283.5781 485.25,284.6563 Q484.5625,285.7188 484.5625,287.8125 Q484.5625,289.9063 485.25,290.9844 Q485.9375,292.0469 487.2813,292.0469 Q487.9063,292.0469 488.5,291.7813 Q489.0938,291.5 489.7188,290.9219 L489.7188,293.6406 Z " fill="#000000"/><text fill="#000000" font-family="sans-serif" font-size="14" lengthAdjust="spacing" textLength="47" x="507.25" y="292.8467">ZipOut</text><line style="stroke:#181818;stroke-width:0.5;" x1="428" x2="601" y1="304" y2="304"/><line style="stroke:#181818;stroke-width:0.5;" x1="428" x2="601" y1="312" y2="312"/><ellipse cx="438" cy="325.6484" fill="#84BE84" rx="3" ry="3" style="stroke:#038048;stroke-width:1.0;"/><text fill="#000000" font-family="sans-serif" font-size="14" lengthAdjust="spacing" textLength="149" x="447" y="328.9951">void write(byte[] data)</text></g><!--MD5=[f74d41bfce01a3edcaa45518e9532d56]
reverse link FileOut to Decorator--><g id="link_FileOut_Decorator"><path d="M374.46,86.74 C362.48,101.09 349.4,116.74 337.84,130.59 " fill="none" id="FileOut-backto-Decorator" style="stroke:#181818;stroke-width:1.0;stroke-dasharray:7.0,7.0;"/><polygon fill="none" points="369.2,82.12,387.39,71.26,379.94,91.1,369.2,82.12" style="stroke:#181818;stroke-width:1.0;"/></g><!--MD5=[8a250e27193c595bd5dd03e9518e226e]
reverse link FileOut to FileOutImpl--><g id="link_FileOut_FileOutImpl"><path d="M452.47,86.66 C467.13,104.21 483.43,123.72 496.6,139.5 " fill="none" id="FileOut-backto-FileOutImpl" style="stroke:#181818;stroke-width:1.0;stroke-dasharray:7.0,7.0;"/><polygon fill="none" points="447.06,91.1,439.61,71.26,457.8,82.12,447.06,91.1" style="stroke:#181818;stroke-width:1.0;"/></g><!--MD5=[e0d61c03083198409841bb35bda046eb]
reverse link Decorator to BufferedOut--><g id="link_Decorator_BufferedOut"><path d="M223.79,222.66 C197.11,239.23 168.22,257.19 144.53,271.91 " fill="none" id="Decorator-backto-BufferedOut" style="stroke:#181818;stroke-width:1.0;"/><polygon fill="none" points="220.24,216.62,240.92,212.01,227.63,228.51,220.24,216.62" style="stroke:#181818;stroke-width:1.0;"/></g><!--MD5=[1d89324448bec86fa54922e86d345cfc]
reverse link Decorator to EncryptionOut--><g id="link_Decorator_EncryptionOut"><path d="M304.5,232.25 C304.5,245.96 304.5,259.99 304.5,271.91 " fill="none" id="Decorator-backto-EncryptionOut" style="stroke:#181818;stroke-width:1.0;"/><polygon fill="none" points="297.5,232.01,304.5,212.01,311.5,232.01,297.5,232.01" style="stroke:#181818;stroke-width:1.0;"/></g><!--MD5=[dfa7f2ec7394f1110add3d50f92d6a91]
reverse link Decorator to ZipOut--><g id="link_Decorator_ZipOut"><path d="M385.21,222.66 C411.89,239.23 440.78,257.19 464.47,271.91 " fill="none" id="Decorator-backto-ZipOut" style="stroke:#181818;stroke-width:1.0;"/><polygon fill="none" points="381.37,228.51,368.08,212.01,388.76,216.62,381.37,228.51" style="stroke:#181818;stroke-width:1.0;"/></g><!--MD5=[bc5b6c92ff5a36fe1b09845e789a2626]
link Client to FileOut--><g id="link_Client_FileOut"><path codeLine="30" d="M291.3,39 C301.05,39 310.81,39 320.56,39 " fill="none" id="Client-to-FileOut" style="stroke:#181818;stroke-width:1.0;"/><polygon fill="#181818" points="325.67,39,316.67,35,320.67,39,316.67,43,325.67,39" style="stroke:#181818;stroke-width:1.0;"/></g><!--MD5=[e339d951dd7d4376efeb5e097192c8e5]
@startuml
class Client { 

}

interface FileOut {
  +void write(byte[] data)
}

abstract class Decorator implements FileOut {
  -Fileout delegate
  #doDelegate(byte[] data)
}

class FileOutImpl implements FileOut {
  +void write(byte[] data)
}

class BufferedOut extends Decorator {
  +void write(byte[] data)
}

class EncryptionOut extends Decorator {
  +void write(byte[] data)
}

class ZipOut extends Decorator {
  +void write(byte[] data)
}

Client -right- -> FileOut
@enduml

PlantUML version 1.2022.7(Mon Aug 22 17:01:30 UTC 2022)
(GPL source distribution)
Java Runtime: OpenJDK Runtime Environment
JVM: OpenJDK 64-Bit Server VM
Default Encoding: UTF-8
Language: en
Country: null
--></g></svg>