<?xml version="1.0" encoding="UTF-8" standalone="no"?><svg xmlns="http://www.w3.org/2000/svg" xmlns:xlink="http://www.w3.org/1999/xlink" contentStyleType="text/css" height="218px" preserveAspectRatio="none" style="width:295px;height:218px;background:#FFFFFF;" version="1.1" viewBox="0 0 295 218" width="295px" zoomAndPan="magnify"><defs/><g><!--MD5=[b1a6bf9cba0999e1042ab692f50fd3ae]
class ListUI--><g id="elem_ListUI"><rect codeLine="1" fill="#F1F1F1" height="48" id="ListUI" rx="2.5" ry="2.5" style="stroke:#181818;stroke-width:0.5;" width="68" x="7" y="15"/><ellipse cx="22" cy="31" fill="#ADD1B2" rx="11" ry="11" style="stroke:#181818;stroke-width:1.0;"/><path d="M24.9688,36.6406 Q24.3906,36.9375 23.75,37.0781 Q23.1094,37.2344 22.4063,37.2344 Q19.9063,37.2344 18.5781,35.5938 Q17.2656,33.9375 17.2656,30.8125 Q17.2656,27.6875 18.5781,26.0313 Q19.9063,24.375 22.4063,24.375 Q23.1094,24.375 23.75,24.5313 Q24.4063,24.6875 24.9688,24.9844 L24.9688,27.7031 Q24.3438,27.125 23.75,26.8594 Q23.1563,26.5781 22.5313,26.5781 Q21.1875,26.5781 20.5,27.6563 Q19.8125,28.7188 19.8125,30.8125 Q19.8125,32.9063 20.5,33.9844 Q21.1875,35.0469 22.5313,35.0469 Q23.1563,35.0469 23.75,34.7813 Q24.3438,34.5 24.9688,33.9219 L24.9688,36.6406 Z " fill="#000000"/><text fill="#000000" font-family="sans-serif" font-size="14" lengthAdjust="spacing" textLength="36" x="36" y="35.8467">ListUI</text><line style="stroke:#181818;stroke-width:0.5;" x1="8" x2="74" y1="47" y2="47"/><line style="stroke:#181818;stroke-width:0.5;" x1="8" x2="74" y1="55" y2="55"/></g><!--MD5=[964f074a2dd77d134c21b891bb53e381]
class Image--><g id="elem_Image"><rect codeLine="3" fill="#F1F1F1" height="64.2969" id="Image" rx="2.5" ry="2.5" style="stroke:#181818;stroke-width:0.5;" width="101" x="110.5" y="7"/><ellipse cx="137.65" cy="23" fill="#B4A7E5" rx="11" ry="11" style="stroke:#181818;stroke-width:1.0;"/><path d="M133.5719,18.7656 L133.5719,16.6094 L140.9625,16.6094 L140.9625,18.7656 L138.4938,18.7656 L138.4938,26.8438 L140.9625,26.8438 L140.9625,29 L133.5719,29 L133.5719,26.8438 L136.0406,26.8438 L136.0406,18.7656 L133.5719,18.7656 Z " fill="#000000"/><text fill="#000000" font-family="sans-serif" font-size="14" font-style="italic" lengthAdjust="spacing" textLength="42" x="154.35" y="27.8467">Image</text><line style="stroke:#181818;stroke-width:0.5;" x1="111.5" x2="210.5" y1="39" y2="39"/><line style="stroke:#181818;stroke-width:0.5;" x1="111.5" x2="210.5" y1="47" y2="47"/><ellipse cx="121.5" cy="60.6484" fill="#84BE84" rx="3" ry="3" style="stroke:#038048;stroke-width:1.0;"/><text fill="#000000" font-family="sans-serif" font-size="14" lengthAdjust="spacing" textLength="75" x="130.5" y="63.9951">void draw()</text></g><!--MD5=[b80044190758d1ea057d0acc6bc57b50]
class ProxyImage--><g id="elem_ProxyImage"><rect codeLine="7" fill="#F1F1F1" height="80.5938" id="ProxyImage" rx="2.5" ry="2.5" style="stroke:#181818;stroke-width:0.5;" width="127" x="21.5" y="131"/><ellipse cx="43.7" cy="147" fill="#ADD1B2" rx="11" ry="11" style="stroke:#181818;stroke-width:1.0;"/><path d="M46.6688,152.6406 Q46.0906,152.9375 45.45,153.0781 Q44.8094,153.2344 44.1063,153.2344 Q41.6063,153.2344 40.2781,151.5938 Q38.9656,149.9375 38.9656,146.8125 Q38.9656,143.6875 40.2781,142.0313 Q41.6063,140.375 44.1063,140.375 Q44.8094,140.375 45.45,140.5313 Q46.1063,140.6875 46.6688,140.9844 L46.6688,143.7031 Q46.0438,143.125 45.45,142.8594 Q44.8563,142.5781 44.2313,142.5781 Q42.8875,142.5781 42.2,143.6563 Q41.5125,144.7188 41.5125,146.8125 Q41.5125,148.9063 42.2,149.9844 Q42.8875,151.0469 44.2313,151.0469 Q44.8563,151.0469 45.45,150.7813 Q46.0438,150.5 46.6688,149.9219 L46.6688,152.6406 Z " fill="#000000"/><text fill="#000000" font-family="sans-serif" font-size="14" lengthAdjust="spacing" textLength="79" x="59.3" y="151.8467">ProxyImage</text><line style="stroke:#181818;stroke-width:0.5;" x1="22.5" x2="147.5" y1="163" y2="163"/><rect fill="none" height="6" style="stroke:#C82930;stroke-width:1.0;" width="6" x="29.5" y="173.6484"/><text fill="#000000" font-family="sans-serif" font-size="14" lengthAdjust="spacing" textLength="101" x="41.5" y="179.9951">RealImage real</text><line style="stroke:#181818;stroke-width:0.5;" x1="22.5" x2="147.5" y1="187.2969" y2="187.2969"/><ellipse cx="32.5" cy="200.9453" fill="#84BE84" rx="3" ry="3" style="stroke:#038048;stroke-width:1.0;"/><text fill="#000000" font-family="sans-serif" font-size="14" lengthAdjust="spacing" textLength="75" x="41.5" y="204.292">void draw()</text></g><!--MD5=[89d30dc0c0d094d34ed46ab1b68a4180]
class RealImage--><g id="elem_RealImage"><rect codeLine="12" fill="#F1F1F1" height="64.2969" id="RealImage" rx="2.5" ry="2.5" style="stroke:#181818;stroke-width:0.5;" width="104" x="184" y="139.5"/><ellipse cx="199" cy="155.5" fill="#ADD1B2" rx="11" ry="11" style="stroke:#181818;stroke-width:1.0;"/><path d="M201.9688,161.1406 Q201.3906,161.4375 200.75,161.5781 Q200.1094,161.7344 199.4063,161.7344 Q196.9063,161.7344 195.5781,160.0938 Q194.2656,158.4375 194.2656,155.3125 Q194.2656,152.1875 195.5781,150.5313 Q196.9063,148.875 199.4063,148.875 Q200.1094,148.875 200.75,149.0313 Q201.4063,149.1875 201.9688,149.4844 L201.9688,152.2031 Q201.3438,151.625 200.75,151.3594 Q200.1563,151.0781 199.5313,151.0781 Q198.1875,151.0781 197.5,152.1563 Q196.8125,153.2188 196.8125,155.3125 Q196.8125,157.4063 197.5,158.4844 Q198.1875,159.5469 199.5313,159.5469 Q200.1563,159.5469 200.75,159.2813 Q201.3438,159 201.9688,158.4219 L201.9688,161.1406 Z " fill="#000000"/><text fill="#000000" font-family="sans-serif" font-size="14" lengthAdjust="spacing" textLength="72" x="213" y="160.3467">RealImage</text><line style="stroke:#181818;stroke-width:0.5;" x1="185" x2="287" y1="171.5" y2="171.5"/><line style="stroke:#181818;stroke-width:0.5;" x1="185" x2="287" y1="179.5" y2="179.5"/><ellipse cx="195" cy="193.1484" fill="#84BE84" rx="3" ry="3" style="stroke:#038048;stroke-width:1.0;"/><text fill="#000000" font-family="sans-serif" font-size="14" lengthAdjust="spacing" textLength="75" x="204" y="196.4951">void draw()</text></g><!--MD5=[85f03f213ee77362854fdc48b77a1577]
reverse link Image to ProxyImage--><g id="link_Image_ProxyImage"><path d="M132.7,88.6 C124.64,102.43 115.96,117.34 108.24,130.59 " fill="none" id="Image-backto-ProxyImage" style="stroke:#181818;stroke-width:1.0;stroke-dasharray:7.0,7.0;"/><polygon fill="none" points="126.68,85.02,142.8,71.26,138.78,92.06,126.68,85.02" style="stroke:#181818;stroke-width:1.0;"/></g><!--MD5=[7345adca31c04485740eb50d8cb4dcaa]
reverse link Image to RealImage--><g id="link_Image_RealImage"><path d="M189.06,88.82 C198.81,105.8 209.48,124.36 218.18,139.5 " fill="none" id="Image-backto-RealImage" style="stroke:#181818;stroke-width:1.0;stroke-dasharray:7.0,7.0;"/><polygon fill="none" points="182.86,92.09,178.96,71.26,195,85.11,182.86,92.09" style="stroke:#181818;stroke-width:1.0;"/></g><!--MD5=[af2932a331f32f5f32b194d000eb2960]
link ListUI to Image--><g id="link_ListUI_Image"><path codeLine="16" d="M75.22,39 C85.21,39 95.19,39 105.18,39 " fill="none" id="ListUI-to-Image" style="stroke:#181818;stroke-width:1.0;stroke-dasharray:7.0,7.0;"/><polygon fill="#181818" points="110.4,39,101.4,35,105.4,39,101.4,43,110.4,39" style="stroke:#181818;stroke-width:1.0;"/></g><!--MD5=[3a55743c62dfee1c6a6682c443fce599]
@startuml
class ListUI { }

interface Image { 
  +void draw()
}

class ProxyImage implements Image {
  -RealImage real
  +void draw()
}

class RealImage implements Image {
  +void draw()
}

ListUI -right..> Image
@enduml

PlantUML version 1.2022.7(Mon Aug 22 17:01:30 UTC 2022)
(GPL source distribution)
Java Runtime: OpenJDK Runtime Environment
JVM: OpenJDK 64-Bit Server VM
Default Encoding: UTF-8
Language: en
Country: null
--></g></svg>