<?xml version="1.0" encoding="UTF-8" standalone="no"?><svg xmlns="http://www.w3.org/2000/svg" xmlns:xlink="http://www.w3.org/1999/xlink" contentStyleType="text/css" height="267px" preserveAspectRatio="none" style="width:1116px;height:267px;background:#FFFFFF;" version="1.1" viewBox="0 0 1116 267" width="1116px" zoomAndPan="magnify"><defs/><g><!--MD5=[898ddfb0345ec8532c0d8d277305d0fa]
class VendingMachine--><g id="elem_VendingMachine"><rect codeLine="1" fill="#F1F1F1" height="113.1875" id="VendingMachine" rx="2.5" ry="2.5" style="stroke:#181818;stroke-width:0.5;" width="231" x="119.5" y="7"/><ellipse cx="173.25" cy="23" fill="#ADD1B2" rx="11" ry="11" style="stroke:#181818;stroke-width:1.0;"/><path d="M176.2188,28.6406 Q175.6406,28.9375 175,29.0781 Q174.3594,29.2344 173.6563,29.2344 Q171.1563,29.2344 169.8281,27.5938 Q168.5156,25.9375 168.5156,22.8125 Q168.5156,19.6875 169.8281,18.0313 Q171.1563,16.375 173.6563,16.375 Q174.3594,16.375 175,16.5313 Q175.6563,16.6875 176.2188,16.9844 L176.2188,19.7031 Q175.5938,19.125 175,18.8594 Q174.4063,18.5781 173.7813,18.5781 Q172.4375,18.5781 171.75,19.6563 Q171.0625,20.7188 171.0625,22.8125 Q171.0625,24.9063 171.75,25.9844 Q172.4375,27.0469 173.7813,27.0469 Q174.4063,27.0469 175,26.7813 Q175.5938,26.5 176.2188,25.9219 L176.2188,28.6406 Z " fill="#000000"/><text fill="#000000" font-family="sans-serif" font-size="14" lengthAdjust="spacing" textLength="115" x="193.75" y="27.8467">VendingMachine</text><line style="stroke:#181818;stroke-width:0.5;" x1="120.5" x2="349.5" y1="39" y2="39"/><rect fill="none" height="6" style="stroke:#C82930;stroke-width:1.0;" width="6" x="127.5" y="49.6484"/><text fill="#000000" font-family="sans-serif" font-size="14" lengthAdjust="spacing" textLength="75" x="139.5" y="55.9951">State state</text><line style="stroke:#181818;stroke-width:0.5;" x1="120.5" x2="349.5" y1="63.2969" y2="63.2969"/><ellipse cx="130.5" cy="76.9453" fill="#84BE84" rx="3" ry="3" style="stroke:#038048;stroke-width:1.0;"/><text fill="#000000" font-family="sans-serif" font-size="14" lengthAdjust="spacing" textLength="171" x="139.5" y="80.292">void insertCoing(int coin)</text><ellipse cx="130.5" cy="93.2422" fill="#84BE84" rx="3" ry="3" style="stroke:#038048;stroke-width:1.0;"/><text fill="#000000" font-family="sans-serif" font-size="14" lengthAdjust="spacing" textLength="171" x="139.5" y="96.5889">void select(int productId)</text><ellipse cx="130.5" cy="109.5391" fill="#84BE84" rx="3" ry="3" style="stroke:#038048;stroke-width:1.0;"/><text fill="#000000" font-family="sans-serif" font-size="14" lengthAdjust="spacing" textLength="205" x="139.5" y="112.8857">void changeState(State state)</text></g><!--MD5=[60d6b92408f98aed8df94d5c6e04aa63]
class State--><g id="elem_State"><rect codeLine="8" fill="#F1F1F1" height="80.5938" id="State" rx="2.5" ry="2.5" style="stroke:#181818;stroke-width:0.5;" width="344" x="386" y="23"/><ellipse cx="535.75" cy="39" fill="#B4A7E5" rx="11" ry="11" style="stroke:#181818;stroke-width:1.0;"/><path d="M531.6719,34.7656 L531.6719,32.6094 L539.0625,32.6094 L539.0625,34.7656 L536.5938,34.7656 L536.5938,42.8438 L539.0625,42.8438 L539.0625,45 L531.6719,45 L531.6719,42.8438 L534.1406,42.8438 L534.1406,34.7656 L531.6719,34.7656 Z " fill="#000000"/><text fill="#000000" font-family="sans-serif" font-size="14" font-style="italic" lengthAdjust="spacing" textLength="36" x="556.25" y="43.8467">State</text><line style="stroke:#181818;stroke-width:0.5;" x1="387" x2="729" y1="55" y2="55"/><line style="stroke:#181818;stroke-width:0.5;" x1="387" x2="729" y1="63" y2="63"/><ellipse cx="397" cy="76.6484" fill="#84BE84" rx="3" ry="3" style="stroke:#038048;stroke-width:1.0;"/><text fill="#000000" font-family="sans-serif" font-size="14" lengthAdjust="spacing" textLength="318" x="406" y="79.9951">void insertCoing(int coin, VendingMachine vm)</text><ellipse cx="397" cy="92.9453" fill="#84BE84" rx="3" ry="3" style="stroke:#038048;stroke-width:1.0;"/><text fill="#000000" font-family="sans-serif" font-size="14" lengthAdjust="spacing" textLength="318" x="406" y="96.292">void select(int productId, VendingMachine vm)</text></g><!--MD5=[5b0146fd2ce7b4d4a1dc769abb420476]
class NoCoinState--><g id="elem_NoCoinState"><rect codeLine="13" fill="#F1F1F1" height="80.5938" id="NoCoinState" rx="2.5" ry="2.5" style="stroke:#181818;stroke-width:0.5;" width="344" x="7" y="180"/><ellipse cx="131.75" cy="196" fill="#ADD1B2" rx="11" ry="11" style="stroke:#181818;stroke-width:1.0;"/><path d="M134.7188,201.6406 Q134.1406,201.9375 133.5,202.0781 Q132.8594,202.2344 132.1563,202.2344 Q129.6563,202.2344 128.3281,200.5938 Q127.0156,198.9375 127.0156,195.8125 Q127.0156,192.6875 128.3281,191.0313 Q129.6563,189.375 132.1563,189.375 Q132.8594,189.375 133.5,189.5313 Q134.1563,189.6875 134.7188,189.9844 L134.7188,192.7031 Q134.0938,192.125 133.5,191.8594 Q132.9063,191.5781 132.2813,191.5781 Q130.9375,191.5781 130.25,192.6563 Q129.5625,193.7188 129.5625,195.8125 Q129.5625,197.9063 130.25,198.9844 Q130.9375,200.0469 132.2813,200.0469 Q132.9063,200.0469 133.5,199.7813 Q134.0938,199.5 134.7188,198.9219 L134.7188,201.6406 Z " fill="#000000"/><text fill="#000000" font-family="sans-serif" font-size="14" lengthAdjust="spacing" textLength="86" x="152.25" y="200.8467">NoCoinState</text><line style="stroke:#181818;stroke-width:0.5;" x1="8" x2="350" y1="212" y2="212"/><line style="stroke:#181818;stroke-width:0.5;" x1="8" x2="350" y1="220" y2="220"/><ellipse cx="18" cy="233.6484" fill="#84BE84" rx="3" ry="3" style="stroke:#038048;stroke-width:1.0;"/><text fill="#000000" font-family="sans-serif" font-size="14" lengthAdjust="spacing" textLength="318" x="27" y="236.9951">void insertCoing(int coin, VendingMachine vm)</text><ellipse cx="18" cy="249.9453" fill="#84BE84" rx="3" ry="3" style="stroke:#038048;stroke-width:1.0;"/><text fill="#000000" font-family="sans-serif" font-size="14" lengthAdjust="spacing" textLength="318" x="27" y="253.292">void select(int productId, VendingMachine vm)</text></g><!--MD5=[2eeb23e0a99cc2a47756a09903cc6533]
class SelectableCoinState--><g id="elem_SelectableCoinState"><rect codeLine="18" fill="#F1F1F1" height="80.5938" id="SelectableCoinState" rx="2.5" ry="2.5" style="stroke:#181818;stroke-width:0.5;" width="344" x="386" y="180"/><ellipse cx="484.25" cy="196" fill="#ADD1B2" rx="11" ry="11" style="stroke:#181818;stroke-width:1.0;"/><path d="M487.2188,201.6406 Q486.6406,201.9375 486,202.0781 Q485.3594,202.2344 484.6563,202.2344 Q482.1563,202.2344 480.8281,200.5938 Q479.5156,198.9375 479.5156,195.8125 Q479.5156,192.6875 480.8281,191.0313 Q482.1563,189.375 484.6563,189.375 Q485.3594,189.375 486,189.5313 Q486.6563,189.6875 487.2188,189.9844 L487.2188,192.7031 Q486.5938,192.125 486,191.8594 Q485.4063,191.5781 484.7813,191.5781 Q483.4375,191.5781 482.75,192.6563 Q482.0625,193.7188 482.0625,195.8125 Q482.0625,197.9063 482.75,198.9844 Q483.4375,200.0469 484.7813,200.0469 Q485.4063,200.0469 486,199.7813 Q486.5938,199.5 487.2188,198.9219 L487.2188,201.6406 Z " fill="#000000"/><text fill="#000000" font-family="sans-serif" font-size="14" lengthAdjust="spacing" textLength="139" x="504.75" y="200.8467">SelectableCoinState</text><line style="stroke:#181818;stroke-width:0.5;" x1="387" x2="729" y1="212" y2="212"/><line style="stroke:#181818;stroke-width:0.5;" x1="387" x2="729" y1="220" y2="220"/><ellipse cx="397" cy="233.6484" fill="#84BE84" rx="3" ry="3" style="stroke:#038048;stroke-width:1.0;"/><text fill="#000000" font-family="sans-serif" font-size="14" lengthAdjust="spacing" textLength="318" x="406" y="236.9951">void insertCoing(int coin, VendingMachine vm)</text><ellipse cx="397" cy="249.9453" fill="#84BE84" rx="3" ry="3" style="stroke:#038048;stroke-width:1.0;"/><text fill="#000000" font-family="sans-serif" font-size="14" lengthAdjust="spacing" textLength="318" x="406" y="253.292">void select(int productId, VendingMachine vm)</text></g><!--MD5=[4875c650fef774ba97d5952c1b638632]
class SoldoutState--><g id="elem_SoldoutState"><rect codeLine="23" fill="#F1F1F1" height="80.5938" id="SoldoutState" rx="2.5" ry="2.5" style="stroke:#181818;stroke-width:0.5;" width="344" x="765" y="180"/><ellipse cx="888.25" cy="196" fill="#ADD1B2" rx="11" ry="11" style="stroke:#181818;stroke-width:1.0;"/><path d="M891.2188,201.6406 Q890.6406,201.9375 890,202.0781 Q889.3594,202.2344 888.6563,202.2344 Q886.1563,202.2344 884.8281,200.5938 Q883.5156,198.9375 883.5156,195.8125 Q883.5156,192.6875 884.8281,191.0313 Q886.1563,189.375 888.6563,189.375 Q889.3594,189.375 890,189.5313 Q890.6563,189.6875 891.2188,189.9844 L891.2188,192.7031 Q890.5938,192.125 890,191.8594 Q889.4063,191.5781 888.7813,191.5781 Q887.4375,191.5781 886.75,192.6563 Q886.0625,193.7188 886.0625,195.8125 Q886.0625,197.9063 886.75,198.9844 Q887.4375,200.0469 888.7813,200.0469 Q889.4063,200.0469 890,199.7813 Q890.5938,199.5 891.2188,198.9219 L891.2188,201.6406 Z " fill="#000000"/><text fill="#000000" font-family="sans-serif" font-size="14" lengthAdjust="spacing" textLength="89" x="908.75" y="200.8467">SoldoutState</text><line style="stroke:#181818;stroke-width:0.5;" x1="766" x2="1108" y1="212" y2="212"/><line style="stroke:#181818;stroke-width:0.5;" x1="766" x2="1108" y1="220" y2="220"/><ellipse cx="776" cy="233.6484" fill="#84BE84" rx="3" ry="3" style="stroke:#038048;stroke-width:1.0;"/><text fill="#000000" font-family="sans-serif" font-size="14" lengthAdjust="spacing" textLength="318" x="785" y="236.9951">void insertCoing(int coin, VendingMachine vm)</text><ellipse cx="776" cy="249.9453" fill="#84BE84" rx="3" ry="3" style="stroke:#038048;stroke-width:1.0;"/><text fill="#000000" font-family="sans-serif" font-size="14" lengthAdjust="spacing" textLength="318" x="785" y="253.292">void select(int productId, VendingMachine vm)</text></g><!--MD5=[5d2c148cc188837d5a6bc7fe730dded0]
reverse link State to NoCoinState--><g id="link_State_NoCoinState"><path d="M442.56,111.71 C389.22,133.52 326.59,159.14 275.77,179.92 " fill="none" id="State-backto-NoCoinState" style="stroke:#181818;stroke-width:1.0;stroke-dasharray:7.0,7.0;"/><polygon fill="none" points="440.22,105.11,461.38,104.01,445.52,118.06,440.22,105.11" style="stroke:#181818;stroke-width:1.0;"/></g><!--MD5=[2d1ea63ef8adc781a37d2f216b5fbb53]
reverse link State to SelectableCoinState--><g id="link_State_SelectableCoinState"><path d="M558,124.18 C558,142.81 558,162.89 558,179.79 " fill="none" id="State-backto-SelectableCoinState" style="stroke:#181818;stroke-width:1.0;stroke-dasharray:7.0,7.0;"/><polygon fill="none" points="551,124.01,558,104.01,565,124.01,551,124.01" style="stroke:#181818;stroke-width:1.0;"/></g><!--MD5=[ffb9f425357ffeb592c14cf834fc258f]
reverse link State to SoldoutState--><g id="link_State_SoldoutState"><path d="M673.44,111.71 C726.78,133.52 789.41,159.14 840.23,179.92 " fill="none" id="State-backto-SoldoutState" style="stroke:#181818;stroke-width:1.0;stroke-dasharray:7.0,7.0;"/><polygon fill="none" points="670.48,118.06,654.62,104.01,675.78,105.11,670.48,118.06" style="stroke:#181818;stroke-width:1.0;"/></g><!--MD5=[01609b498c8327911740c9bc7de58ea0]
link VendingMachine to State--><g id="link_VendingMachine_State"><path codeLine="28" d="M350.76,63.5 C360.76,63.5 370.75,63.5 380.75,63.5 " fill="none" id="VendingMachine-to-State" style="stroke:#181818;stroke-width:1.0;"/><polygon fill="#181818" points="385.98,63.5,376.98,59.5,380.98,63.5,376.98,67.5,385.98,63.5" style="stroke:#181818;stroke-width:1.0;"/></g><!--MD5=[e5dc0e3600ff87cd29c969e440c9bf95]
@startuml
class VendingMachine {
  -State state
  +void insertCoing(int coin)
  +void select(int productId)
  +void changeState(State state)
}

interface State {
  +void insertCoing(int coin, VendingMachine vm)
  +void select(int productId, VendingMachine vm)
}

class NoCoinState implements State {
  +void insertCoing(int coin, VendingMachine vm)
  +void select(int productId, VendingMachine vm)
}

class SelectableCoinState implements State {
  +void insertCoing(int coin, VendingMachine vm)
  +void select(int productId, VendingMachine vm)
}

class SoldoutState implements State {
  +void insertCoing(int coin, VendingMachine vm)
  +void select(int productId, VendingMachine vm)
}

VendingMachine -right- -> State
@enduml

PlantUML version 1.2022.7(Mon Aug 22 17:01:30 UTC 2022)
(GPL source distribution)
Java Runtime: OpenJDK Runtime Environment
JVM: OpenJDK 64-Bit Server VM
Default Encoding: UTF-8
Language: en
Country: null
--></g></svg>