<?xml version="1.0" encoding="UTF-8" standalone="no"?><svg xmlns="http://www.w3.org/2000/svg" xmlns:xlink="http://www.w3.org/1999/xlink" contentStyleType="text/css" height="267px" preserveAspectRatio="none" style="width:709px;height:267px;background:#FFFFFF;" version="1.1" viewBox="0 0 709 267" width="709px" zoomAndPan="magnify"><defs/><g><!--MD5=[898ddfb0345ec8532c0d8d277305d0fa]
class VendingMachine--><g id="elem_VendingMachine"><rect codeLine="1" fill="#F1F1F1" height="113.1875" id="VendingMachine" rx="2.5" ry="2.5" style="stroke:#181818;stroke-width:0.5;" width="231" x="7" y="7"/><ellipse cx="60.75" cy="23" fill="#ADD1B2" rx="11" ry="11" style="stroke:#181818;stroke-width:1.0;"/><path d="M63.7188,28.6406 Q63.1406,28.9375 62.5,29.0781 Q61.8594,29.2344 61.1563,29.2344 Q58.6563,29.2344 57.3281,27.5938 Q56.0156,25.9375 56.0156,22.8125 Q56.0156,19.6875 57.3281,18.0313 Q58.6563,16.375 61.1563,16.375 Q61.8594,16.375 62.5,16.5313 Q63.1563,16.6875 63.7188,16.9844 L63.7188,19.7031 Q63.0938,19.125 62.5,18.8594 Q61.9063,18.5781 61.2813,18.5781 Q59.9375,18.5781 59.25,19.6563 Q58.5625,20.7188 58.5625,22.8125 Q58.5625,24.9063 59.25,25.9844 Q59.9375,27.0469 61.2813,27.0469 Q61.9063,27.0469 62.5,26.7813 Q63.0938,26.5 63.7188,25.9219 L63.7188,28.6406 Z " fill="#000000"/><text fill="#000000" font-family="sans-serif" font-size="14" lengthAdjust="spacing" textLength="115" x="81.25" y="27.8467">VendingMachine</text><line style="stroke:#181818;stroke-width:0.5;" x1="8" x2="237" y1="39" y2="39"/><rect fill="none" height="6" style="stroke:#C82930;stroke-width:1.0;" width="6" x="15" y="49.6484"/><text fill="#000000" font-family="sans-serif" font-size="14" lengthAdjust="spacing" textLength="75" x="27" y="55.9951">State state</text><line style="stroke:#181818;stroke-width:0.5;" x1="8" x2="237" y1="63.2969" y2="63.2969"/><ellipse cx="18" cy="76.9453" fill="#84BE84" rx="3" ry="3" style="stroke:#038048;stroke-width:1.0;"/><text fill="#000000" font-family="sans-serif" font-size="14" lengthAdjust="spacing" textLength="171" x="27" y="80.292">void insertCoing(int coin)</text><ellipse cx="18" cy="93.2422" fill="#84BE84" rx="3" ry="3" style="stroke:#038048;stroke-width:1.0;"/><text fill="#000000" font-family="sans-serif" font-size="14" lengthAdjust="spacing" textLength="171" x="27" y="96.5889">void select(int productId)</text><rect fill="#F24D5C" height="6" style="stroke:#C82930;stroke-width:1.0;" width="6" x="15" y="106.5391"/><text fill="#000000" font-family="sans-serif" font-size="14" lengthAdjust="spacing" textLength="205" x="27" y="112.8857">void changeState(State state)</text></g><!--MD5=[60d6b92408f98aed8df94d5c6e04aa63]
class State--><g id="elem_State"><rect codeLine="8" fill="#F1F1F1" height="80.5938" id="State" rx="2.5" ry="2.5" style="stroke:#181818;stroke-width:0.5;" width="197" x="273" y="23"/><ellipse cx="349.25" cy="39" fill="#B4A7E5" rx="11" ry="11" style="stroke:#181818;stroke-width:1.0;"/><path d="M345.1719,34.7656 L345.1719,32.6094 L352.5625,32.6094 L352.5625,34.7656 L350.0938,34.7656 L350.0938,42.8438 L352.5625,42.8438 L352.5625,45 L345.1719,45 L345.1719,42.8438 L347.6406,42.8438 L347.6406,34.7656 L345.1719,34.7656 Z " fill="#000000"/><text fill="#000000" font-family="sans-serif" font-size="14" font-style="italic" lengthAdjust="spacing" textLength="36" x="369.75" y="43.8467">State</text><line style="stroke:#181818;stroke-width:0.5;" x1="274" x2="469" y1="55" y2="55"/><line style="stroke:#181818;stroke-width:0.5;" x1="274" x2="469" y1="63" y2="63"/><ellipse cx="284" cy="76.6484" fill="#84BE84" rx="3" ry="3" style="stroke:#038048;stroke-width:1.0;"/><text fill="#000000" font-family="sans-serif" font-size="14" lengthAdjust="spacing" textLength="171" x="293" y="79.9951">void insertCoing(int coin)</text><ellipse cx="284" cy="92.9453" fill="#84BE84" rx="3" ry="3" style="stroke:#038048;stroke-width:1.0;"/><text fill="#000000" font-family="sans-serif" font-size="14" lengthAdjust="spacing" textLength="171" x="293" y="96.292">void select(int productId)</text></g><!--MD5=[5b0146fd2ce7b4d4a1dc769abb420476]
class NoCoinState--><g id="elem_NoCoinState"><rect codeLine="13" fill="#F1F1F1" height="80.5938" id="NoCoinState" rx="2.5" ry="2.5" style="stroke:#181818;stroke-width:0.5;" width="197" x="41" y="180"/><ellipse cx="92.25" cy="196" fill="#ADD1B2" rx="11" ry="11" style="stroke:#181818;stroke-width:1.0;"/><path d="M95.2188,201.6406 Q94.6406,201.9375 94,202.0781 Q93.3594,202.2344 92.6563,202.2344 Q90.1563,202.2344 88.8281,200.5938 Q87.5156,198.9375 87.5156,195.8125 Q87.5156,192.6875 88.8281,191.0313 Q90.1563,189.375 92.6563,189.375 Q93.3594,189.375 94,189.5313 Q94.6563,189.6875 95.2188,189.9844 L95.2188,192.7031 Q94.5938,192.125 94,191.8594 Q93.4063,191.5781 92.7813,191.5781 Q91.4375,191.5781 90.75,192.6563 Q90.0625,193.7188 90.0625,195.8125 Q90.0625,197.9063 90.75,198.9844 Q91.4375,200.0469 92.7813,200.0469 Q93.4063,200.0469 94,199.7813 Q94.5938,199.5 95.2188,198.9219 L95.2188,201.6406 Z " fill="#000000"/><text fill="#000000" font-family="sans-serif" font-size="14" lengthAdjust="spacing" textLength="86" x="112.75" y="200.8467">NoCoinState</text><line style="stroke:#181818;stroke-width:0.5;" x1="42" x2="237" y1="212" y2="212"/><line style="stroke:#181818;stroke-width:0.5;" x1="42" x2="237" y1="220" y2="220"/><ellipse cx="52" cy="233.6484" fill="#84BE84" rx="3" ry="3" style="stroke:#038048;stroke-width:1.0;"/><text fill="#000000" font-family="sans-serif" font-size="14" lengthAdjust="spacing" textLength="171" x="61" y="236.9951">void insertCoing(int coin)</text><ellipse cx="52" cy="249.9453" fill="#84BE84" rx="3" ry="3" style="stroke:#038048;stroke-width:1.0;"/><text fill="#000000" font-family="sans-serif" font-size="14" lengthAdjust="spacing" textLength="171" x="61" y="253.292">void select(int productId)</text></g><!--MD5=[2eeb23e0a99cc2a47756a09903cc6533]
class SelectableCoinState--><g id="elem_SelectableCoinState"><rect codeLine="18" fill="#F1F1F1" height="80.5938" id="SelectableCoinState" rx="2.5" ry="2.5" style="stroke:#181818;stroke-width:0.5;" width="197" x="273" y="180"/><ellipse cx="299.7" cy="196" fill="#ADD1B2" rx="11" ry="11" style="stroke:#181818;stroke-width:1.0;"/><path d="M302.6688,201.6406 Q302.0906,201.9375 301.45,202.0781 Q300.8094,202.2344 300.1063,202.2344 Q297.6063,202.2344 296.2781,200.5938 Q294.9656,198.9375 294.9656,195.8125 Q294.9656,192.6875 296.2781,191.0313 Q297.6063,189.375 300.1063,189.375 Q300.8094,189.375 301.45,189.5313 Q302.1063,189.6875 302.6688,189.9844 L302.6688,192.7031 Q302.0438,192.125 301.45,191.8594 Q300.8563,191.5781 300.2313,191.5781 Q298.8875,191.5781 298.2,192.6563 Q297.5125,193.7188 297.5125,195.8125 Q297.5125,197.9063 298.2,198.9844 Q298.8875,200.0469 300.2313,200.0469 Q300.8563,200.0469 301.45,199.7813 Q302.0438,199.5 302.6688,198.9219 L302.6688,201.6406 Z " fill="#000000"/><text fill="#000000" font-family="sans-serif" font-size="14" lengthAdjust="spacing" textLength="139" x="316.3" y="200.8467">SelectableCoinState</text><line style="stroke:#181818;stroke-width:0.5;" x1="274" x2="469" y1="212" y2="212"/><line style="stroke:#181818;stroke-width:0.5;" x1="274" x2="469" y1="220" y2="220"/><ellipse cx="284" cy="233.6484" fill="#84BE84" rx="3" ry="3" style="stroke:#038048;stroke-width:1.0;"/><text fill="#000000" font-family="sans-serif" font-size="14" lengthAdjust="spacing" textLength="171" x="293" y="236.9951">void insertCoing(int coin)</text><ellipse cx="284" cy="249.9453" fill="#84BE84" rx="3" ry="3" style="stroke:#038048;stroke-width:1.0;"/><text fill="#000000" font-family="sans-serif" font-size="14" lengthAdjust="spacing" textLength="171" x="293" y="253.292">void select(int productId)</text></g><!--MD5=[4875c650fef774ba97d5952c1b638632]
class SoldoutState--><g id="elem_SoldoutState"><rect codeLine="23" fill="#F1F1F1" height="80.5938" id="SoldoutState" rx="2.5" ry="2.5" style="stroke:#181818;stroke-width:0.5;" width="197" x="505" y="180"/><ellipse cx="554.75" cy="196" fill="#ADD1B2" rx="11" ry="11" style="stroke:#181818;stroke-width:1.0;"/><path d="M557.7188,201.6406 Q557.1406,201.9375 556.5,202.0781 Q555.8594,202.2344 555.1563,202.2344 Q552.6563,202.2344 551.3281,200.5938 Q550.0156,198.9375 550.0156,195.8125 Q550.0156,192.6875 551.3281,191.0313 Q552.6563,189.375 555.1563,189.375 Q555.8594,189.375 556.5,189.5313 Q557.1563,189.6875 557.7188,189.9844 L557.7188,192.7031 Q557.0938,192.125 556.5,191.8594 Q555.9063,191.5781 555.2813,191.5781 Q553.9375,191.5781 553.25,192.6563 Q552.5625,193.7188 552.5625,195.8125 Q552.5625,197.9063 553.25,198.9844 Q553.9375,200.0469 555.2813,200.0469 Q555.9063,200.0469 556.5,199.7813 Q557.0938,199.5 557.7188,198.9219 L557.7188,201.6406 Z " fill="#000000"/><text fill="#000000" font-family="sans-serif" font-size="14" lengthAdjust="spacing" textLength="89" x="575.25" y="200.8467">SoldoutState</text><line style="stroke:#181818;stroke-width:0.5;" x1="506" x2="701" y1="212" y2="212"/><line style="stroke:#181818;stroke-width:0.5;" x1="506" x2="701" y1="220" y2="220"/><ellipse cx="516" cy="233.6484" fill="#84BE84" rx="3" ry="3" style="stroke:#038048;stroke-width:1.0;"/><text fill="#000000" font-family="sans-serif" font-size="14" lengthAdjust="spacing" textLength="171" x="525" y="236.9951">void insertCoing(int coin)</text><ellipse cx="516" cy="249.9453" fill="#84BE84" rx="3" ry="3" style="stroke:#038048;stroke-width:1.0;"/><text fill="#000000" font-family="sans-serif" font-size="14" lengthAdjust="spacing" textLength="171" x="525" y="253.292">void select(int productId)</text></g><!--MD5=[5d2c148cc188837d5a6bc7fe730dded0]
reverse link State to NoCoinState--><g id="link_State_NoCoinState"><path d="M295.46,115.3 C264.11,136.25 228.32,160.16 198.94,179.79 " fill="none" id="State-backto-NoCoinState" style="stroke:#181818;stroke-width:1.0;stroke-dasharray:7.0,7.0;"/><polygon fill="none" points="291.84,109.3,312.36,104.01,299.62,120.95,291.84,109.3" style="stroke:#181818;stroke-width:1.0;"/></g><!--MD5=[2d1ea63ef8adc781a37d2f216b5fbb53]
reverse link State to SelectableCoinState--><g id="link_State_SelectableCoinState"><path d="M371.5,124.18 C371.5,142.81 371.5,162.89 371.5,179.79 " fill="none" id="State-backto-SelectableCoinState" style="stroke:#181818;stroke-width:1.0;stroke-dasharray:7.0,7.0;"/><polygon fill="none" points="364.5,124.01,371.5,104.01,378.5,124.01,364.5,124.01" style="stroke:#181818;stroke-width:1.0;"/></g><!--MD5=[ffb9f425357ffeb592c14cf834fc258f]
reverse link State to SoldoutState--><g id="link_State_SoldoutState"><path d="M447.54,115.3 C478.89,136.25 514.68,160.16 544.06,179.79 " fill="none" id="State-backto-SoldoutState" style="stroke:#181818;stroke-width:1.0;stroke-dasharray:7.0,7.0;"/><polygon fill="none" points="443.38,120.95,430.64,104.01,451.16,109.3,443.38,120.95" style="stroke:#181818;stroke-width:1.0;"/></g><!--MD5=[01609b498c8327911740c9bc7de58ea0]
link VendingMachine to State--><g id="link_VendingMachine_State"><path codeLine="28" d="M238.25,63.5 C248.07,63.5 257.9,63.5 267.72,63.5 " fill="none" id="VendingMachine-to-State" style="stroke:#181818;stroke-width:1.0;"/><polygon fill="#181818" points="272.86,63.5,263.86,59.5,267.86,63.5,263.86,67.5,272.86,63.5" style="stroke:#181818;stroke-width:1.0;"/></g><!--MD5=[95359c8ea912710e8c5cd5b9a4433e9a]
@startuml
class VendingMachine {
  -State state
  +void insertCoing(int coin)
  +void select(int productId)
  -void changeState(State state)
}

interface State {
  +void insertCoing(int coin)
  +void select(int productId)
}

class NoCoinState implements State {
  +void insertCoing(int coin)
  +void select(int productId)
}

class SelectableCoinState implements State {
  +void insertCoing(int coin)
  +void select(int productId)
}

class SoldoutState implements State {
  +void insertCoing(int coin)
  +void select(int productId)
}

VendingMachine -right- -> State
@enduml

PlantUML version 1.2022.7(Mon Aug 22 17:01:30 UTC 2022)
(GPL source distribution)
Java Runtime: OpenJDK Runtime Environment
JVM: OpenJDK 64-Bit Server VM
Default Encoding: UTF-8
Language: en
Country: null
--></g></svg>