<?xml version="1.0" encoding="UTF-8" standalone="no"?><svg xmlns="http://www.w3.org/2000/svg" xmlns:xlink="http://www.w3.org/1999/xlink" contentStyleType="text/css" height="280px" preserveAspectRatio="none" style="width:566px;height:280px;background:#FFFFFF;" version="1.1" viewBox="0 0 566 280" width="566px" zoomAndPan="magnify"><defs/><g><!--MD5=[e6f67585185a4b3ef1aae8f414a63962]
class Calculator--><g id="elem_Calculator"><rect codeLine="1" fill="#F1F1F1" height="80.5938" id="Calculator" rx="2.5" ry="2.5" style="stroke:#181818;stroke-width:0.5;" width="141" x="7" y="7"/><ellipse cx="40.45" cy="23" fill="#ADD1B2" rx="11" ry="11" style="stroke:#181818;stroke-width:1.0;"/><path d="M43.4188,28.6406 Q42.8406,28.9375 42.2,29.0781 Q41.5594,29.2344 40.8563,29.2344 Q38.3563,29.2344 37.0281,27.5938 Q35.7156,25.9375 35.7156,22.8125 Q35.7156,19.6875 37.0281,18.0313 Q38.3563,16.375 40.8563,16.375 Q41.5594,16.375 42.2,16.5313 Q42.8563,16.6875 43.4188,16.9844 L43.4188,19.7031 Q42.7938,19.125 42.2,18.8594 Q41.6063,18.5781 40.9813,18.5781 Q39.6375,18.5781 38.95,19.6563 Q38.2625,20.7188 38.2625,22.8125 Q38.2625,24.9063 38.95,25.9844 Q39.6375,27.0469 40.9813,27.0469 Q41.6063,27.0469 42.2,26.7813 Q42.7938,26.5 43.4188,25.9219 L43.4188,28.6406 Z " fill="#000000"/><text fill="#000000" font-family="sans-serif" font-size="14" lengthAdjust="spacing" textLength="68" x="58.55" y="27.8467">Calculator</text><line style="stroke:#181818;stroke-width:0.5;" x1="8" x2="147" y1="39" y2="39"/><line style="stroke:#181818;stroke-width:0.5;" x1="8" x2="147" y1="47" y2="47"/><text fill="#000000" font-family="sans-serif" font-size="14" lengthAdjust="spacing" textLength="119" x="13" y="63.9951">Integer calculate(</text><text fill="#000000" font-family="sans-serif" font-size="14" lengthAdjust="spacing" textLength="129" x="13" y="80.292">items: List&lt;Item&gt;)</text></g><!--MD5=[24a902db0fc8fed799193e0e6f4cf36a]
class DiscountStrategy--><g id="elem_DiscountStrategy"><rect codeLine="6" fill="#F1F1F1" height="64.2969" id="DiscountStrategy" rx="2.5" ry="2.5" style="stroke:#181818;stroke-width:0.5;" width="231" x="183" y="15.5"/><ellipse cx="234.75" cy="31.5" fill="#B4A7E5" rx="11" ry="11" style="stroke:#181818;stroke-width:1.0;"/><path d="M230.6719,27.2656 L230.6719,25.1094 L238.0625,25.1094 L238.0625,27.2656 L235.5938,27.2656 L235.5938,35.3438 L238.0625,35.3438 L238.0625,37.5 L230.6719,37.5 L230.6719,35.3438 L233.1406,35.3438 L233.1406,27.2656 L230.6719,27.2656 Z " fill="#000000"/><text fill="#000000" font-family="sans-serif" font-size="14" font-style="italic" lengthAdjust="spacing" textLength="119" x="255.25" y="36.3467">DiscountStrategy</text><line style="stroke:#181818;stroke-width:0.5;" x1="184" x2="413" y1="47.5" y2="47.5"/><line style="stroke:#181818;stroke-width:0.5;" x1="184" x2="413" y1="55.5" y2="55.5"/><text fill="#000000" font-family="sans-serif" font-size="14" lengthAdjust="spacing" textLength="219" x="189" y="72.4951">int getDiscountPrice(item: Item)</text></g><!--MD5=[bb9b266c91ee238bf6a5fdc930dbb08d]
class FirstGuestDiscountStrategy--><g id="elem_FirstGuestDiscountStrategy"><rect codeLine="10" fill="#F1F1F1" height="64.2969" id="FirstGuestDiscountStrategy" rx="2.5" ry="2.5" style="stroke:#181818;stroke-width:0.5;" width="231" x="45" y="209"/><ellipse cx="64.05" cy="225" fill="#ADD1B2" rx="11" ry="11" style="stroke:#181818;stroke-width:1.0;"/><path d="M67.0188,230.6406 Q66.4406,230.9375 65.8,231.0781 Q65.1594,231.2344 64.4563,231.2344 Q61.9563,231.2344 60.6281,229.5938 Q59.3156,227.9375 59.3156,224.8125 Q59.3156,221.6875 60.6281,220.0313 Q61.9563,218.375 64.4563,218.375 Q65.1594,218.375 65.8,218.5313 Q66.4563,218.6875 67.0188,218.9844 L67.0188,221.7031 Q66.3938,221.125 65.8,220.8594 Q65.2063,220.5781 64.5813,220.5781 Q63.2375,220.5781 62.55,221.6563 Q61.8625,222.7188 61.8625,224.8125 Q61.8625,226.9063 62.55,227.9844 Q63.2375,229.0469 64.5813,229.0469 Q65.2063,229.0469 65.8,228.7813 Q66.3938,228.5 67.0188,227.9219 L67.0188,230.6406 Z " fill="#000000"/><text fill="#000000" font-family="sans-serif" font-size="14" lengthAdjust="spacing" textLength="190" x="78.95" y="229.8467">FirstGuestDiscountStrategy</text><line style="stroke:#181818;stroke-width:0.5;" x1="46" x2="275" y1="241" y2="241"/><line style="stroke:#181818;stroke-width:0.5;" x1="46" x2="275" y1="249" y2="249"/><text fill="#000000" font-family="sans-serif" font-size="14" lengthAdjust="spacing" textLength="219" x="51" y="265.9951">int getDiscountPrice(item: Item)</text></g><!--MD5=[a085a41f5b4e79a8bbbba475195e13db]
class NonFreshItemDiscountStrategy--><g id="elem_NonFreshItemDiscountStrategy"><rect codeLine="14" fill="#F1F1F1" height="64.2969" id="NonFreshItemDiscountStrategy" rx="2.5" ry="2.5" style="stroke:#181818;stroke-width:0.5;" width="248" x="311.5" y="209"/><ellipse cx="326.5" cy="225" fill="#ADD1B2" rx="11" ry="11" style="stroke:#181818;stroke-width:1.0;"/><path d="M329.4688,230.6406 Q328.8906,230.9375 328.25,231.0781 Q327.6094,231.2344 326.9063,231.2344 Q324.4063,231.2344 323.0781,229.5938 Q321.7656,227.9375 321.7656,224.8125 Q321.7656,221.6875 323.0781,220.0313 Q324.4063,218.375 326.9063,218.375 Q327.6094,218.375 328.25,218.5313 Q328.9063,218.6875 329.4688,218.9844 L329.4688,221.7031 Q328.8438,221.125 328.25,220.8594 Q327.6563,220.5781 327.0313,220.5781 Q325.6875,220.5781 325,221.6563 Q324.3125,222.7188 324.3125,224.8125 Q324.3125,226.9063 325,227.9844 Q325.6875,229.0469 327.0313,229.0469 Q327.6563,229.0469 328.25,228.7813 Q328.8438,228.5 329.4688,227.9219 L329.4688,230.6406 Z " fill="#000000"/><text fill="#000000" font-family="sans-serif" font-size="14" lengthAdjust="spacing" textLength="216" x="340.5" y="229.8467">NonFreshItemDiscountStrategy</text><line style="stroke:#181818;stroke-width:0.5;" x1="312.5" x2="558.5" y1="241" y2="241"/><line style="stroke:#181818;stroke-width:0.5;" x1="312.5" x2="558.5" y1="249" y2="249"/><text fill="#000000" font-family="sans-serif" font-size="14" lengthAdjust="spacing" textLength="219" x="317.5" y="265.9951">int getDiscountPrice(item: Item)</text></g><!--MD5=[efedbcf8ecfd57ecfb6a4adc296761ea]
link Calculator to DiscountStrategy--><g id="link_Calculator_DiscountStrategy"><path codeLine="18" d="M148.29,47.5 C158.12,47.5 167.94,47.5 177.77,47.5 " fill="none" id="Calculator-to-DiscountStrategy" style="stroke:#181818;stroke-width:1.0;stroke-dasharray:7.0,7.0;"/><polygon fill="#181818" points="182.91,47.5,173.91,43.5,177.91,47.5,173.91,51.5,182.91,47.5" style="stroke:#181818;stroke-width:1.0;"/></g><!--MD5=[dea2b99b605583f3c641e94f32fa96f6]
reverse link DiscountStrategy to FirstGuestDiscountStrategy--><g id="link_DiscountStrategy_FirstGuestDiscountStrategy"><path codeLine="20" d="M263.98,96.4 C238.63,131.58 204.92,178.36 182.97,208.82 " fill="none" id="DiscountStrategy-backto-FirstGuestDiscountStrategy" style="stroke:#181818;stroke-width:1.0;stroke-dasharray:7.0,7.0;"/><polygon fill="none" points="258.65,91.83,276.02,79.69,270.01,100.01,258.65,91.83" style="stroke:#181818;stroke-width:1.0;"/></g><!--MD5=[aac41b117e647b4a9e3246ee7a7f3d98]
reverse link DiscountStrategy to NonFreshItemDiscountStrategy--><g id="link_DiscountStrategy_NonFreshItemDiscountStrategy"><path codeLine="21" d="M332.77,96.4 C357.93,131.58 391.4,178.36 413.19,208.82 " fill="none" id="DiscountStrategy-backto-NonFreshItemDiscountStrategy" style="stroke:#181818;stroke-width:1.0;stroke-dasharray:7.0,7.0;"/><polygon fill="none" points="326.76,100.03,320.82,79.69,338.15,91.89,326.76,100.03" style="stroke:#181818;stroke-width:1.0;"/></g><!--MD5=[52e7df1f4d5b5046d72b3409e372ac48]
@startuml
class Calculator {
  Integer calculate(
    items: List<Item>)
}

interface DiscountStrategy {
  int getDiscountPrice(item: Item)
}

class FirstGuestDiscountStrategy {
  int getDiscountPrice(item: Item)
}

class NonFreshItemDiscountStrategy {
  int getDiscountPrice(item: Item)
}

Calculator -right..> DiscountStrategy

FirstGuestDiscountStrategy -up..|> DiscountStrategy
NonFreshItemDiscountStrategy -up..|> DiscountStrategy
@enduml

PlantUML version 1.2022.7(Mon Aug 22 17:01:30 UTC 2022)
(GPL source distribution)
Java Runtime: OpenJDK Runtime Environment
JVM: OpenJDK 64-Bit Server VM
Default Encoding: UTF-8
Language: en
Country: null
--></g></svg>