<?xml version="1.0" encoding="UTF-8" standalone="no"?><svg xmlns="http://www.w3.org/2000/svg" xmlns:xlink="http://www.w3.org/1999/xlink" contentStyleType="text/css" height="267px" preserveAspectRatio="none" style="width:711px;height:267px;background:#FFFFFF;" version="1.1" viewBox="0 0 711 267" width="711px" zoomAndPan="magnify"><defs/><g><!--MD5=[62c2e99fee737b047c7f20e0c23d3f25]
class Authenticator--><g id="elem_Authenticator"><rect codeLine="1" fill="#F1F1F1" height="113.1875" id="Authenticator" rx="2.5" ry="2.5" style="stroke:#181818;stroke-width:0.5;" width="330" x="191" y="7"/><ellipse cx="305.25" cy="23" fill="#A9DCDF" rx="11" ry="11" style="stroke:#181818;stroke-width:1.0;"/><path d="M305.3594,18.3438 L304.2031,23.4219 L306.5313,23.4219 L305.3594,18.3438 Z M303.875,16.1094 L306.8594,16.1094 L310.2188,28.5 L307.7656,28.5 L307,25.4375 L303.7188,25.4375 L302.9688,28.5 L300.5313,28.5 L303.875,16.1094 Z " fill="#000000"/><text fill="#000000" font-family="sans-serif" font-size="14" font-style="italic" lengthAdjust="spacing" textLength="93" x="325.75" y="27.8467">Authenticator</text><line style="stroke:#181818;stroke-width:0.5;" x1="192" x2="520" y1="39" y2="39"/><line style="stroke:#181818;stroke-width:0.5;" x1="192" x2="520" y1="47" y2="47"/><ellipse cx="202" cy="60.6484" fill="#84BE84" rx="3" ry="3" style="stroke:#038048;stroke-width:1.0;"/><text fill="#000000" font-family="sans-serif" font-size="14" lengthAdjust="spacing" textLength="261" x="211" y="63.9951">Auth authenticate(String id, String pw)</text><polygon fill="#FFFF44" points="202,71.9453,206,75.9453,202,79.9453,198,75.9453" style="stroke:#B38D22;stroke-width:1.0;"/><text fill="#000000" font-family="sans-serif" font-size="14" font-style="italic" lengthAdjust="spacing" textLength="304" x="211" y="80.292">boolean doAuthenticate(String id, String pw)</text><polygon fill="#FFFF44" points="202,88.2422,206,92.2422,202,96.2422,198,92.2422" style="stroke:#B38D22;stroke-width:1.0;"/><text fill="#000000" font-family="sans-serif" font-size="14" font-style="italic" lengthAdjust="spacing" textLength="178" x="211" y="96.5889">Auth createAuth(String id)</text><rect fill="#F24D5C" height="6" style="stroke:#C82930;stroke-width:1.0;" width="6" x="199" y="106.5391"/><text fill="#000000" font-family="sans-serif" font-size="14" lengthAdjust="spacing" textLength="252" x="211" y="112.8857">RuntimeException createException()</text></g><!--MD5=[0f8359f2f9c369e73b7a02fd8c495a19]
class LdapAuthencator--><g id="elem_LdapAuthencator"><rect codeLine="8" fill="#F1F1F1" height="80.5938" id="LdapAuthencator" rx="2.5" ry="2.5" style="stroke:#181818;stroke-width:0.5;" width="330" x="9" y="180"/><ellipse cx="110.75" cy="196" fill="#ADD1B2" rx="11" ry="11" style="stroke:#181818;stroke-width:1.0;"/><path d="M113.7188,201.6406 Q113.1406,201.9375 112.5,202.0781 Q111.8594,202.2344 111.1563,202.2344 Q108.6563,202.2344 107.3281,200.5938 Q106.0156,198.9375 106.0156,195.8125 Q106.0156,192.6875 107.3281,191.0313 Q108.6563,189.375 111.1563,189.375 Q111.8594,189.375 112.5,189.5313 Q113.1563,189.6875 113.7188,189.9844 L113.7188,192.7031 Q113.0938,192.125 112.5,191.8594 Q111.9063,191.5781 111.2813,191.5781 Q109.9375,191.5781 109.25,192.6563 Q108.5625,193.7188 108.5625,195.8125 Q108.5625,197.9063 109.25,198.9844 Q109.9375,200.0469 111.2813,200.0469 Q111.9063,200.0469 112.5,199.7813 Q113.0938,199.5 113.7188,198.9219 L113.7188,201.6406 Z " fill="#000000"/><text fill="#000000" font-family="sans-serif" font-size="14" lengthAdjust="spacing" textLength="118" x="131.25" y="200.8467">LdapAuthencator</text><line style="stroke:#181818;stroke-width:0.5;" x1="10" x2="338" y1="212" y2="212"/><line style="stroke:#181818;stroke-width:0.5;" x1="10" x2="338" y1="220" y2="220"/><polygon fill="#FFFF44" points="20,228.6484,24,232.6484,20,236.6484,16,232.6484" style="stroke:#B38D22;stroke-width:1.0;"/><text fill="#000000" font-family="sans-serif" font-size="14" lengthAdjust="spacing" textLength="304" x="29" y="236.9951">boolean doAuthenticate(String id, String pw)</text><polygon fill="#FFFF44" points="20,244.9453,24,248.9453,20,252.9453,16,248.9453" style="stroke:#B38D22;stroke-width:1.0;"/><text fill="#000000" font-family="sans-serif" font-size="14" lengthAdjust="spacing" textLength="178" x="29" y="253.292">Auth createAuth(String id)</text></g><!--MD5=[f21c1157a6e1f84d8aca038a2d5e7699]
class DbAuthencator--><g id="elem_DbAuthencator"><rect codeLine="13" fill="#F1F1F1" height="80.5938" id="DbAuthencator" rx="2.5" ry="2.5" style="stroke:#181818;stroke-width:0.5;" width="330" x="374" y="180"/><ellipse cx="482.25" cy="196" fill="#ADD1B2" rx="11" ry="11" style="stroke:#181818;stroke-width:1.0;"/><path d="M485.2188,201.6406 Q484.6406,201.9375 484,202.0781 Q483.3594,202.2344 482.6563,202.2344 Q480.1563,202.2344 478.8281,200.5938 Q477.5156,198.9375 477.5156,195.8125 Q477.5156,192.6875 478.8281,191.0313 Q480.1563,189.375 482.6563,189.375 Q483.3594,189.375 484,189.5313 Q484.6563,189.6875 485.2188,189.9844 L485.2188,192.7031 Q484.5938,192.125 484,191.8594 Q483.4063,191.5781 482.7813,191.5781 Q481.4375,191.5781 480.75,192.6563 Q480.0625,193.7188 480.0625,195.8125 Q480.0625,197.9063 480.75,198.9844 Q481.4375,200.0469 482.7813,200.0469 Q483.4063,200.0469 484,199.7813 Q484.5938,199.5 485.2188,198.9219 L485.2188,201.6406 Z " fill="#000000"/><text fill="#000000" font-family="sans-serif" font-size="14" lengthAdjust="spacing" textLength="105" x="502.75" y="200.8467">DbAuthencator</text><line style="stroke:#181818;stroke-width:0.5;" x1="375" x2="703" y1="212" y2="212"/><line style="stroke:#181818;stroke-width:0.5;" x1="375" x2="703" y1="220" y2="220"/><polygon fill="#FFFF44" points="385,228.6484,389,232.6484,385,236.6484,381,232.6484" style="stroke:#B38D22;stroke-width:1.0;"/><text fill="#000000" font-family="sans-serif" font-size="14" lengthAdjust="spacing" textLength="304" x="394" y="236.9951">boolean doAuthenticate(String id, String pw)</text><polygon fill="#FFFF44" points="385,244.9453,389,248.9453,385,252.9453,381,248.9453" style="stroke:#B38D22;stroke-width:1.0;"/><text fill="#000000" font-family="sans-serif" font-size="14" lengthAdjust="spacing" textLength="178" x="394" y="253.292">Auth createAuth(String id)</text></g><!--MD5=[f6ee49ae25ac5bd3c051d70dc761886b]
reverse link Authenticator to LdapAuthencator--><g id="link_Authenticator_LdapAuthencator"><path d="M275.55,133.02 C256.71,149.06 237.26,165.63 220.48,179.91 " fill="none" id="Authenticator-backto-LdapAuthencator" style="stroke:#181818;stroke-width:1.0;"/><polygon fill="none" points="271.04,127.66,290.81,120.02,280.12,138.32,271.04,127.66" style="stroke:#181818;stroke-width:1.0;"/></g><!--MD5=[970fe67ed845b38dae1b5c779bf04c11]
reverse link Authenticator to DbAuthencator--><g id="link_Authenticator_DbAuthencator"><path d="M436.9,133.02 C455.84,149.06 475.4,165.63 492.26,179.91 " fill="none" id="Authenticator-backto-DbAuthencator" style="stroke:#181818;stroke-width:1.0;"/><polygon fill="none" points="432.29,138.29,421.55,120.02,441.34,127.61,432.29,138.29" style="stroke:#181818;stroke-width:1.0;"/></g><!--MD5=[9a56d1cee0df2ae912efe22a31d61e19]
@startuml
abstract class Authenticator {
  +Auth authenticate(String id, String pw)
  #{abstract}boolean doAuthenticate(String id, String pw)
  #{abstract}Auth createAuth(String id)
  -RuntimeException createException()
}

class LdapAuthencator extends Authenticator {
  #boolean doAuthenticate(String id, String pw)
  #Auth createAuth(String id)
}

class DbAuthencator extends Authenticator {
  #boolean doAuthenticate(String id, String pw)
  #Auth createAuth(String id)
}
@enduml

PlantUML version 1.2022.7(Mon Aug 22 17:01:30 UTC 2022)
(GPL source distribution)
Java Runtime: OpenJDK Runtime Environment
JVM: OpenJDK 64-Bit Server VM
Default Encoding: UTF-8
Language: en
Country: null
--></g></svg>